<?xml version="1.0" encoding="utf-8"?>
<!-- Generator: Adobe Illustrator 18.1.1, SVG Export Plug-In . SVG Version: 6.00 Build 0)  -->
<svg version="1.1" id="レイヤー_1" xmlns="http://www.w3.org/2000/svg" xmlns:xlink="http://www.w3.org/1999/xlink" x="0px"
	 y="0px" viewBox="0 0 88.1 88.1" enable-background="new 0 0 88.1 88.1" xml:space="preserve">
<g>
	<g>
		
			<rect x="-667.5" y="0.7" transform="matrix(0.7071 0.7071 -0.7071 0.7071 -151.883 454.3772)" fill="#FFFFFF" width="86.3" height="86.3"/>
		<path d="M-624.4,108.1l-64.3-64.3l64.3-64.3l64.3,64.3L-624.4,108.1z M-682.1,43.8l57.7,57.7l57.7-57.7l-57.7-57.7L-682.1,43.8z"
			/>
	</g>
	<rect x="-654.9" y="11" width="61" height="4.7"/>
	<rect x="-626.7" y="0.7" transform="matrix(0.7071 0.7071 -0.7071 0.7071 -151.883 454.3772)" width="4.7" height="86.3"/>
	<rect x="-654.9" y="72" width="61" height="4.7"/>
	<rect x="-626.8" y="-17.1" width="4.7" height="122"/>
	<rect x="-631.2" y="57.3" transform="matrix(0.7071 0.7071 -0.7071 0.7071 -136.4303 448.5472)" width="43.1" height="4.7"/>
</g>
<g>
	<rect x="-506" y="-3.6" fill="none" stroke="#000000" stroke-width="5" stroke-miterlimit="10" width="106.8" height="106.8"/>
	<line fill="none" stroke="#000000" stroke-width="5" stroke-miterlimit="10" x1="-399.3" y1="-3.6" x2="-506" y2="103.2"/>
	<line fill="none" stroke="#000000" stroke-width="5" stroke-miterlimit="10" x1="-452.6" y1="-3" x2="-452.6" y2="102.6"/>
	<line fill="none" stroke="#000000" stroke-width="5" stroke-miterlimit="10" x1="-452.7" y1="49.8" x2="-399.3" y2="103.2"/>
</g>
<g>
	<circle fill="none" stroke="#000000" stroke-width="5" stroke-miterlimit="10" cx="-285.1" cy="43.7" r="54.2"/>
	<line fill="none" stroke="#000000" stroke-width="5" stroke-miterlimit="10" x1="-285.1" y1="-10.5" x2="-285.1" y2="97.8"/>
	<rect x="-340" y="-10.4" fill="none" stroke="#000000" stroke-width="5" stroke-miterlimit="10" width="109.1" height="109.1"/>
	<line fill="none" stroke="#000000" stroke-width="5" stroke-miterlimit="10" x1="-231" y1="-10.4" x2="-340" y2="98.6"/>
	<line fill="none" stroke="#000000" stroke-width="5" stroke-miterlimit="10" x1="-285.1" y1="43.7" x2="-230.6" y2="98.2"/>
</g>
<g>
	
		<rect x="-165.5" y="1.5" transform="matrix(0.7071 0.7071 -0.7071 0.7071 -5.8547 100.2515)" fill="none" stroke="#000000" stroke-width="5" stroke-miterlimit="10" width="83.1" height="83.1"/>
	<circle fill="none" stroke="#000000" stroke-width="5" stroke-miterlimit="10" cx="-123.9" cy="43.1" r="41.6"/>
	<line fill="none" stroke="#000000" stroke-width="5" stroke-miterlimit="10" x1="-153.3" y1="13.7" x2="-94.6" y2="13.7"/>
	<line fill="none" stroke="#000000" stroke-width="5" stroke-miterlimit="10" x1="-94.6" y1="13.7" x2="-153.3" y2="72.4"/>
	<line fill="none" stroke="#000000" stroke-width="5" stroke-miterlimit="10" x1="-153.3" y1="72.4" x2="-94.6" y2="72.4"/>
	<line fill="none" stroke="#000000" stroke-width="5" stroke-miterlimit="10" x1="-123.9" y1="-15.7" x2="-123.9" y2="101.8"/>
	<line fill="none" stroke="#000000" stroke-width="5" stroke-miterlimit="10" x1="-123.9" y1="43.1" x2="-94.6" y2="72.4"/>
</g>
<g>
	<g>
		<rect x="2.5" y="2.5" fill="none" stroke="#FFFFFF" stroke-width="5" stroke-miterlimit="10" width="83.1" height="83.1"/>
		<circle fill="none" stroke="#FFFFFF" stroke-width="5" stroke-miterlimit="10" cx="44.1" cy="44.1" r="41.6"/>
		<path fill="none" stroke="#FFFFFF" stroke-width="5" stroke-miterlimit="10" d="M85.6,44.1"/>
		<path fill="none" stroke="#FFFFFF" stroke-width="5" stroke-miterlimit="10" d="M44.1,2.5"/>
		<path fill="none" stroke="#FFFFFF" stroke-width="5" stroke-miterlimit="10" d="M2.5,44.1"/>
		<path fill="none" stroke="#FFFFFF" stroke-width="5" stroke-miterlimit="10" d="M85.6,44.1"/>
		<path fill="none" stroke="#FFFFFF" stroke-width="5" stroke-miterlimit="10" d="M44.1,85.6"/>
		<path fill="none" stroke="#FFFFFF" stroke-width="5" stroke-miterlimit="10" d="M2.5,44.1"/>
		<line fill="none" stroke="#FFFFFF" stroke-width="5" stroke-miterlimit="10" x1="85.6" y1="2.5" x2="2.5" y2="85.6"/>
	</g>
	<line fill="none" stroke="#FFFFFF" stroke-width="5" stroke-miterlimit="10" x1="44.1" y1="2.5" x2="44.1" y2="85.6"/>
	<line fill="none" stroke="#FFFFFF" stroke-width="5" stroke-miterlimit="10" x1="44.1" y1="44.1" x2="85.6" y2="85.6"/>
</g>
<g>
	<g>
		<rect x="170.7" y="4.2" fill="none" stroke="#000000" stroke-width="5" stroke-miterlimit="10" width="79.7" height="79.7"/>
		<circle fill="none" stroke="#000000" stroke-width="5" stroke-miterlimit="10" cx="210.5" cy="44.1" r="59.2"/>
		<path fill="none" stroke="#000000" stroke-width="5" stroke-miterlimit="10" d="M252.1,44.1"/>
		<path fill="none" stroke="#000000" stroke-width="5" stroke-miterlimit="10" d="M210.5,2.5"/>
		<path fill="none" stroke="#000000" stroke-width="5" stroke-miterlimit="10" d="M169,44.1"/>
		<path fill="none" stroke="#000000" stroke-width="5" stroke-miterlimit="10" d="M252.1,44.1"/>
		<path fill="none" stroke="#000000" stroke-width="5" stroke-miterlimit="10" d="M210.5,85.6"/>
		<path fill="none" stroke="#000000" stroke-width="5" stroke-miterlimit="10" d="M169,44.1"/>
		<line fill="none" stroke="#000000" stroke-width="5" stroke-miterlimit="10" x1="252.1" y1="2.5" x2="169" y2="85.6"/>
	</g>
	<line fill="none" stroke="#000000" stroke-width="5" stroke-miterlimit="10" x1="210.5" y1="2.5" x2="210.5" y2="85.6"/>
	<line fill="none" stroke="#000000" stroke-width="5" stroke-miterlimit="10" x1="210.5" y1="44.1" x2="252.1" y2="85.6"/>
</g>
</svg>
