<?xml version="1.0" encoding="utf-8"?>
<!-- Generator: Adobe Illustrator 21.0.2, SVG Export Plug-In . SVG Version: 6.00 Build 0)  -->
<svg version="1.1" id="レイヤー_1" xmlns="http://www.w3.org/2000/svg" xmlns:xlink="http://www.w3.org/1999/xlink" x="0px"
	 y="0px" viewBox="0 0 600 600" enable-background="new 0 0 600 600" xml:space="preserve">
<g id="レイヤー_2">
	<rect fill="#379E7C" width="600" height="600"/>
</g>
<g id="レイヤー_1_1_">
	<line display="none" fill="none" stroke="#000000" stroke-miterlimit="10" x1="-156.5" y1="150" x2="624.5" y2="150"/>
	<line display="none" fill="none" stroke="#000000" stroke-miterlimit="10" x1="-53.25" y1="0" x2="611.75" y2="0"/>
	<line display="none" fill="none" stroke="#000000" stroke-miterlimit="10" x1="50" y1="600" x2="715" y2="600"/>
	<line display="none" fill="none" stroke="#000000" stroke-miterlimit="10" x1="-143.75" y1="300" x2="637.25" y2="300"/>
	<line display="none" fill="none" stroke="#000000" stroke-miterlimit="10" x1="-131" y1="450" x2="650" y2="450"/>
	<line display="none" fill="none" stroke="#000000" stroke-miterlimit="10" x1="300" y1="-9.252" x2="300" y2="599.252"/>
	<line display="none" fill="none" stroke="#000000" stroke-miterlimit="10" x1="0" y1="-15" x2="0" y2="585"/>
	<line display="none" fill="none" stroke="#000000" stroke-miterlimit="10" x1="450" y1="0.748" x2="450" y2="600.748"/>
	<line display="none" fill="none" stroke="#000000" stroke-miterlimit="10" x1="150" y1="-3" x2="150" y2="597"/>
	<line display="none" fill="none" stroke="#000000" stroke-miterlimit="10" x1="600" y1="-7.252" x2="600" y2="592.748"/>
	<g>
		<rect x="275" y="475.382" fill="#FFFFFF" width="50" height="47.813"/>
		<path fill="#FFFFFF" d="M300.374,76.805c-82.511,0-149.419,66.788-149.621,149.252h50c0.203-54.762,44.812-99.252,99.621-99.252
			c54.934,0,99.626,44.692,99.626,99.626c0,54.934-44.692,99.626-99.626,99.626c-8.766,0-17.269-1.143-25.374-3.279v24.303v26.823
			v24.145v57.333h50v-81.354c70.917-11.745,125-73.35,125-147.597C450,143.795,383.01,76.805,300.374,76.805z"/>
	</g>
</g>
</svg>
